<svg width="117" height="117" viewBox="0 0 117 117" fill="none" xmlns="http://www.w3.org/2000/svg">
<circle cx="99.4297" cy="42.5078" r="6.14844" fill="#DC1010" stroke="#DC1010" stroke-width="3"/>
<path d="M33.6036 27.7252H35.4905L36.0078 25.9107L37.9665 19.0404C38.3952 17.5369 39.769 16.5 41.3324 16.5H73.8799C75.4433 16.5 76.8171 17.5369 77.2458 19.0404L79.2045 25.9107L79.7219 27.7252H81.6087H110.812C112.745 27.7252 114.312 29.2922 114.312 31.2252V97C114.312 98.933 112.745 100.5 110.812 100.5H6C4.067 100.5 2.5 98.933 2.5 97V31.2252C2.5 29.2922 4.06701 27.7252 6 27.7252H33.6036Z" stroke="white" stroke-width="5"/>
<circle cx="58.4062" cy="64.0625" r="23.9219" stroke="white" stroke-width="5"/>
</svg>
