<svg width="117" height="117" viewBox="0 0 117 117" fill="none" xmlns="http://www.w3.org/2000/svg">
<path d="M34.6702 9.66542C36.1149 7.43392 37.3463 5.57219 38.27 4.19031C39.1181 5.38025 40.1931 6.95292 41.4372 8.83897C44.6935 13.7758 49.0452 20.765 53.3974 28.4353C57.7532 36.112 62.0845 44.4269 65.3192 52.0256C68.5966 59.7244 70.5957 66.3473 70.5957 70.7707C70.5957 89.3509 55.9592 104.295 38.0479 104.295C20.1365 104.295 5.5 89.3509 5.5 70.7707C5.5 66.3554 7.49406 59.8618 10.7691 52.3241C14.0019 44.8838 18.3316 36.7572 22.6896 29.2011C27.0429 21.6532 31.3998 14.717 34.6702 9.66542Z" stroke="white" stroke-width="5"/>
<ellipse cx="69.2527" cy="79.6446" rx="45.1084" ry="37.3554" fill="#249922"/>
<path d="M97.4455 100.684C97.4455 108.138 91.6954 114.181 84.6022 114.181C77.509 114.181 71.7588 108.138 71.7588 100.684C71.7588 93.2303 77.509 87.1877 84.6022 87.1877C91.6954 87.1877 97.4455 93.2303 97.4455 100.684Z" fill="#D20000"/>
<path d="M89.74 58.8449L47.3569 105.707" stroke="#D20000" stroke-width="6" stroke-linecap="round"/>
<ellipse cx="52.494" cy="64.2435" rx="12.8434" ry="13.4965" fill="#D20000"/>
<ellipse cx="52.494" cy="64.2435" rx="6.42169" ry="6.74827" fill="#249922"/>
<ellipse cx="84.6023" cy="100.684" rx="6.42169" ry="6.74827" fill="#249922"/>
</svg>
