<svg width="80" height="86" viewBox="0 0 80 86" fill="none" xmlns="http://www.w3.org/2000/svg">
<path d="M25.0363 4.26003C25.5114 4.94671 26.0573 5.75526 26.661 6.6704C28.9625 10.1597 32.041 15.104 35.1202 20.5306C38.2029 25.9636 41.261 31.8359 43.5409 37.1916C45.8634 42.6474 47.226 47.2269 47.226 50.2048C47.226 63.0034 37.1494 73.2609 24.863 73.2609C12.5766 73.2609 2.5 63.0034 2.5 50.2048C2.5 47.235 3.85751 42.7484 6.17776 37.4083C8.45573 32.1656 11.5122 26.427 14.5971 21.0783C17.6773 15.7377 20.7611 10.8283 23.0768 7.25149C23.8178 6.1069 24.4794 5.09985 25.0363 4.26003Z" fill="#249922" stroke="white" stroke-width="5"/>
<ellipse cx="47.5" cy="63" rx="32.5" ry="22" fill="#249922"/>
<path d="M38.28 52.2C40.2 52.2 41.72 52.84 42.84 54.12C43.9867 55.3733 44.56 57.5733 44.56 60.72C44.56 63.0667 44.3333 64.9867 43.88 66.48C43.4267 67.9467 42.9067 68.92 42.32 69.4C41.7333 69.88 40.7067 70.2667 39.24 70.56C37.8 70.8533 36.3067 71 34.76 71C34.3067 71 33.5467 70.9733 32.48 70.92V76.6L25.64 76.88V52.6H31.24L31.92 55.44C32.6133 54.4533 33.4933 53.6667 34.56 53.08C35.6533 52.4933 36.8933 52.2 38.28 52.2ZM36.68 66.12C36.9733 65.9067 37.1867 65.3067 37.32 64.32C37.4533 63.3067 37.52 62.3467 37.52 61.44C37.52 59.9467 37.3333 58.84 36.96 58.12C36.5867 57.4 35.84 57.04 34.72 57.04C33.92 57.04 33.1733 57.12 32.48 57.28V66.16L33.6 66.28C33.9467 66.3067 34.44 66.32 35.08 66.32C35.9867 66.32 36.52 66.2533 36.68 66.12ZM47.6416 48.2H54.8816V56.56H61.0816V48.2H68.3216V71H61.0816V61.16H54.8816V71H47.6416V48.2Z" fill="#DC1010"/>
</svg>
