<svg width="117" height="117" viewBox="0 0 117 117" fill="none" xmlns="http://www.w3.org/2000/svg">
<path d="M69.0642 88.3859C69.0642 102.415 58.2612 113.5 45.2821 113.5C32.303 113.5 21.5 102.415 21.5 88.3859C21.5 74.3566 32.303 63.2717 45.2821 63.2717C58.2612 63.2717 69.0642 74.3566 69.0642 88.3859Z" stroke="white" stroke-width="7"/>
<rect x="29.4204" width="31.7234" height="89.0217" rx="15.8617" fill="#1D941B"/>
<path d="M58.6113 15.8454V72.6689C58.6113 80.0394 52.6363 86.0144 45.2658 86.0144C37.8954 86.0144 31.9204 80.0394 31.9204 72.6689V15.8454C31.9204 8.47495 37.8954 2.5 45.2658 2.5C52.6363 2.5 58.6113 8.47495 58.6113 15.8454Z" stroke="white" stroke-width="5"/>
<path d="M66.2196 88.3859C66.2196 99.9748 56.8456 109.37 45.2821 109.37C33.7187 109.37 24.3447 99.9748 24.3447 88.3859C24.3447 76.7969 33.7187 67.4022 45.2821 67.4022C56.8456 67.4022 66.2196 76.7969 66.2196 88.3859Z" fill="#1D941B"/>
<path d="M61.1438 89.0217C61.1438 98.1525 54.0423 105.554 45.2821 105.554C36.5219 105.554 29.4204 98.1525 29.4204 89.0217C29.4204 79.891 36.5219 72.4891 45.2821 72.4891C54.0423 72.4891 61.1438 79.891 61.1438 89.0217Z" fill="#D20000"/>
<rect x="40.8408" y="11.4457" width="8.88254" height="67.4022" rx="4.44127" fill="#D20000"/>
<rect x="66.0806" y="16.0518" width="5.96211" height="21.6074" rx="2.98105" transform="rotate(-90 66.0806 16.0518)" fill="white"/>
<path d="M69.0616 28.4346C67.4152 28.4346 66.0806 27.1 66.0806 25.4536V25.4536C66.0806 23.8072 67.4152 22.4725 69.0616 22.4725H96.2308C97.8772 22.4725 99.2119 23.8072 99.2119 25.4536V25.4536C99.2119 27.1 97.8772 28.4346 96.2309 28.4346L69.0616 28.4346Z" fill="white"/>
<path d="M69.0616 53.2004C67.4152 53.2004 66.0806 51.8657 66.0806 50.2193V50.2193C66.0806 48.5729 67.4152 47.2383 69.0616 47.2383H96.2308C97.8772 47.2383 99.2119 48.5729 99.2119 50.2193V50.2193C99.2119 51.8657 97.8772 53.2004 96.2308 53.2004H69.0616Z" fill="white"/>
<rect x="66.0806" y="40.8175" width="5.96211" height="21.6074" rx="2.98105" transform="rotate(-90 66.0806 40.8175)" fill="white"/>
<rect x="66.0806" y="65.5832" width="5.96211" height="21.6074" rx="2.98105" transform="rotate(-90 66.0806 65.5832)" fill="white"/>
</svg>
