<svg width="117" height="117" viewBox="0 0 117 117" fill="none" xmlns="http://www.w3.org/2000/svg">
<g clip-path="url(#clip0_64_90)">
<path d="M50.6645 100.632L57.2381 94.0586C59.3687 91.9281 62.6235 91.3999 65.3184 92.7473L73.6711 96.9237C78.5689 99.3726 82.9429 102.752 86.5489 106.873V106.873H31.1621L36.6445 101.848C39.0725 99.6218 42.4409 98.7345 45.6503 99.4751L50.6645 100.632Z" fill="#DC1010"/>
<path d="M23.3611 6.86114H16.5V2.5H101.991V6.86114H95.1299H92.6299V9.36114V31.0918C92.6299 34.408 91.1984 37.5627 88.7027 39.7464L69.3807 56.6532C67.787 58.0476 67.787 60.5268 69.3807 61.9212L88.7027 78.828C91.1983 81.0117 92.6299 84.1665 92.6299 87.4826V109.213V111.713H95.1299H101.991V114.514H16.5V111.713H23.3611H25.8611V109.213V87.9771C25.8611 84.4283 27.4996 81.0783 30.3008 78.8995L51.9645 62.05C53.7661 60.6487 53.7661 57.9258 51.9645 56.5245L30.3008 39.6749C27.4996 37.4962 25.8611 34.1462 25.8611 30.5974V9.36114V6.86114H23.3611Z" stroke="white" stroke-width="5"/>
<rect x="14" y="107.653" width="90.491" height="9.36114" fill="white"/>
<rect x="14" width="90.491" height="9.36114" fill="white"/>
<path d="M58.7546 54.5924L58.9006 54.7384C59.6816 55.5194 60.948 55.5194 61.729 54.7384L61.875 54.5924L66.3632 49.463C67.0099 48.7239 67.7277 48.05 68.5062 47.4512L77.2475 40.7272C77.3921 40.6159 77.4769 40.4437 77.4769 40.2612V40.2612C77.4769 39.9771 77.2737 39.7336 76.9942 39.6828L71.3414 38.655C69.7243 38.361 68.0674 38.361 66.4503 38.655V38.655C62.3683 39.3972 58.2277 39.7706 54.0787 39.7706H41.977C41.7646 39.7706 41.5925 39.9427 41.5925 40.155V40.155C41.5925 40.4033 41.7124 40.6363 41.9145 40.7807L50.8302 47.149C51.9507 47.9494 53.0032 48.841 53.9769 49.8147L58.7546 54.5924Z" fill="#DC1010"/>
</g>
<defs>
<clipPath id="clip0_64_90">
<rect width="117" height="117" fill="white"/>
</clipPath>
</defs>
</svg>
